<?xml version="1.0" encoding="iso-8859-1"?>
<!-- Generator: Adobe Illustrator 19.0.0, SVG Export Plug-In . SVG Version: 6.00 Build 0)  -->
<svg version="1.1" id="Layer_1" xmlns="http://www.w3.org/2000/svg" xmlns:xlink="http://www.w3.org/1999/xlink" x="0px" y="0px"
	 viewBox="0 0 392.663 392.663" style="enable-background:new 0 0 392.663 392.663;" xml:space="preserve">
<path style="fill:#FFC10D;" d="M290.877,89.277h-37.689v11.442c0,6.012-4.848,10.925-10.925,10.925H150.4
	c-6.012,0-10.925-4.848-10.925-10.925V89.277h-37.689c-5.301,0-9.632,4.331-9.632,9.632V361.05c0,5.301,4.331,9.632,9.632,9.632
	h189.091c5.301,0,9.632-4.331,9.632-9.632V98.974C300.509,93.608,296.242,89.277,290.877,89.277z"/>
<g>
	<rect x="181.754" y="21.85" style="fill:#56ACE0;" width="29.026" height="21.657"/>
	<rect x="161.325" y="65.293" style="fill:#56ACE0;" width="70.012" height="24.501"/>
</g>
<path style="fill:#194F82;" d="M290.877,67.426h-37.689V54.368c0-6.012-4.848-10.925-10.925-10.925h-9.632V10.925
	C232.63,4.913,227.782,0,221.705,0h-50.877c-6.012,0-10.925,4.848-10.925,10.925v32.517H150.4c-6.012,0-10.925,4.848-10.925,10.925
	v13.059h-37.689c-17.39,0-31.547,14.158-31.547,31.547v262.141c0,17.39,14.158,31.547,31.547,31.547h189.091
	c17.39,0,31.547-14.158,31.547-31.547V98.974C322.36,81.584,308.202,67.426,290.877,67.426z M181.754,21.85h29.026v21.657h-29.026
	V21.85L181.754,21.85z M161.325,65.293h70.012v24.501h-70.012V65.293L161.325,65.293z M300.509,361.05
	c0,5.301-4.331,9.632-9.632,9.632H101.721c-5.301,0-9.632-4.331-9.632-9.632V98.974c0-5.301,4.331-9.632,9.632-9.632h37.689v11.442
	c0,6.012,4.848,10.925,10.925,10.925h91.798c6.012,0,10.925-4.848,10.925-10.925V89.341h37.689c5.301,0,9.632,4.331,9.632,9.632
	v262.141h0.129V361.05z"/>
<rect x="148.461" y="155.281" style="fill:#FFFFFF;" width="95.677" height="128.259"/>
<path style="fill:#194F82;" d="M254.998,133.43H137.6c-6.012,0-10.925,4.848-10.925,10.925v150.109
	c0,6.012,4.848,10.925,10.925,10.925h117.463c6.012,0,10.925-4.848,10.925-10.925V144.42
	C265.923,138.408,261.075,133.43,254.998,133.43z M244.137,283.604h-95.677V155.281h95.677V283.604L244.137,283.604z"/>
<path style="fill:#56ACE0;" d="M170.246,177.067v8.339h27.281c6.012,0,10.925,4.848,10.925,10.925
	c0,6.077-4.848,10.925-10.925,10.925h-27.281v16.485h4.331c6.012,0,10.925,4.848,10.925,10.925c0,6.012-4.848,10.925-10.925,10.925
	h-4.331v16.226h51.976v-84.752H170.246z"/>
<path style="fill:#194F82;" d="M260.299,327.176h-128c-6.012,0-10.925,4.848-10.925,10.925s4.848,10.925,10.925,10.925h128
	c6.012,0,10.925-4.848,10.925-10.925C271.16,332.089,266.311,327.176,260.299,327.176z"/>
<g>
</g>
<g>
</g>
<g>
</g>
<g>
</g>
<g>
</g>
<g>
</g>
<g>
</g>
<g>
</g>
<g>
</g>
<g>
</g>
<g>
</g>
<g>
</g>
<g>
</g>
<g>
</g>
<g>
</g>
</svg>
